<svg id='Apple_Music_Lyrics_24' width='24' height='24' viewBox='0 0 24 24' xmlns='http://www.w3.org/2000/svg' xmlns:xlink='http://www.w3.org/1999/xlink'><rect width='24' height='24' stroke='none' fill='#000000' opacity='0'/>


<g transform="matrix(0.5 0 0 0.5 12 12)" >
<path style="stroke: none; stroke-width: 1; stroke-dasharray: none; stroke-linecap: butt; stroke-dashoffset: 0; stroke-linejoin: miter; stroke-miterlimit: 4; fill: rgb(0,0,0); fill-rule: nonzero; opacity: 1;" transform=" translate(-25, -26.5)" d="M 38.399 7 L 11.601 7 C 7.961 7 5 9.969 5 13.622 L 5.061 31.358999999999998 C 5.061 35.021 7.989 38 11.587 38 L 15.047 38 L 15.059000000000001 45.002 C 15.06 45.419000000000004 15.319 45.791000000000004 15.709000000000001 45.937000000000005 C 15.823 45.979 15.941 46 16.059 46 C 16.342000000000002 46 16.619 45.879 16.813000000000002 45.657 L 23.491000000000003 37.997 L 38.492000000000004 37.924 C 42.202000000000005 37.924 45.00000000000001 35.176 45.00000000000001 31.533 L 45.00000000000001 13.618 C 45 9.969 42.039 7 38.399 7 z M 23 21.035 C 23.037 22.482 22.374 25.77 19.603 27.859 C 19.423000000000002 27.995 19.211000000000002 28.061000000000003 19.002000000000002 28.061000000000003 C 18.699 28.061000000000003 18.399 27.924000000000003 18.203000000000003 27.663000000000004 C 17.870000000000005 27.222000000000005 17.958000000000002 26.595000000000002 18.399000000000004 26.263000000000005 C 19.282000000000004 25.597000000000005 19.870000000000005 24.775000000000006 20.266000000000005 23.970000000000006 C 20.019000000000005 24.026000000000007 19.764000000000006 24.061000000000007 19.501000000000005 24.061000000000007 C 17.571000000000005 24.061000000000007 16.001000000000005 22.47800000000001 16.001000000000005 20.531000000000006 C 16.001000000000005 18.584000000000003 17.57 17 19.5 17 C 21.43 17 23 18.583 23 20.53 L 23 21.035 z M 33.999 21.035 C 34.036 22.482 33.373000000000005 25.77 30.602000000000004 27.859 C 30.422000000000004 27.995 30.210000000000004 28.061000000000003 30.001000000000005 28.061000000000003 C 29.698000000000004 28.061000000000003 29.398000000000003 27.924000000000003 29.202000000000005 27.663000000000004 C 28.869000000000007 27.222000000000005 28.957000000000004 26.595000000000002 29.398000000000007 26.263000000000005 C 30.281000000000006 25.597000000000005 30.869000000000007 24.775000000000006 31.265000000000008 23.970000000000006 C 31.018000000000008 24.026000000000007 30.76300000000001 24.061000000000007 30.500000000000007 24.061000000000007 C 28.570000000000007 24.061000000000007 27.000000000000007 22.47800000000001 27.000000000000007 20.531000000000006 C 27.000000000000007 18.584000000000003 28.570000000000007 17.001000000000005 30.500000000000007 17.001000000000005 C 32.43000000000001 17.001000000000005 34.00000000000001 18.584000000000003 34.00000000000001 20.531000000000006 L 33.999 21.035 z" stroke-linecap="round" />
</g>
</svg>
